{
	"asset":{
		"generator":"Khronos glTF Blender I/O v4.3.47",
		"version":"2.0"
	},
	"extensionsUsed":[
		"KHR_materials_emissive_strength"
	],
	"scene":0,
	"scenes":[
		{
			"name":"Scene",
			"nodes":[
				0,
				1,
				2,
				3,
				4,
				5,
				6,
				7,
				8,
				9,
				10,
				11,
				12,
				13
			]
		}
	],
	"nodes":[
		{
			"mesh":0,
			"name":"Cube",
			"scale":[
				0.1730000078678131,
				0.17000000178813934,
				0.21550001204013824
			]
		},
		{
			"mesh":1,
			"name":"Plane",
			"rotation":[
				0.5,
				0.5,
				-0.5,
				0.5
			],
			"scale":[
				0.03929421678185463,
				0.03929421678185463,
				0.03929421678185463
			],
			"translation":[
				0,
				-0.12914127111434937,
				0.20274944603443146
			]
		},
		{
			"mesh":2,
			"name":"Cube.001",
			"scale":[
				0.1730000078678131,
				0.17000000178813934,
				0.21550001204013824
			],
			"translation":[
				0,
				0,
				-0.004450059495866299
			]
		},
		{
			"mesh":3,
			"name":"Cube.002",
			"scale":[
				0.1730000078678131,
				0.17000000178813934,
				0.21550001204013824
			]
		},
		{
			"mesh":4,
			"name":"Cube.003",
			"scale":[
				0.1730000078678131,
				0.17000000178813934,
				0.21550001204013824
			],
			"translation":[
				-0.1812341809272766,
				-0.012961694970726967,
				-0.004450061358511448
			]
		},
		{
			"mesh":5,
			"name":"Cube.004",
			"scale":[
				0.1730000078678131,
				0.17000000178813934,
				0.21550001204013824
			],
			"translation":[
				-0.1812341809272766,
				0.007385872304439545,
				-0.004450061358511448
			]
		},
		{
			"mesh":6,
			"name":"Cube.005",
			"scale":[
				0.1730000078678131,
				0.17000000178813934,
				0.21550001204013824
			]
		},
		{
			"mesh":7,
			"name":"Cube.006",
			"scale":[
				0.1730000078678131,
				0.17000000178813934,
				0.21550001204013824
			]
		},
		{
			"mesh":8,
			"name":"Cube.007",
			"scale":[
				0.1730000078678131,
				0.17000000178813934,
				0.21550001204013824
			]
		},
		{
			"mesh":9,
			"name":"Cube.008",
			"scale":[
				0.1730000078678131,
				0.17000000178813934,
				0.21550001204013824
			]
		},
		{
			"mesh":10,
			"name":"Cube.009",
			"scale":[
				0.1730000078678131,
				0.17000000178813934,
				0.21550001204013824
			]
		},
		{
			"mesh":11,
			"name":"Cube.010",
			"scale":[
				0.1730000078678131,
				0.17000000178813934,
				0.21550001204013824
			]
		},
		{
			"mesh":12,
			"name":"Screen",
			"scale":[
				0.1730000078678131,
				0.17000000178813934,
				0.21550001204013824
			]
		},
		{
			"mesh":13,
			"name":"Icosphere",
			"scale":[
				0.03310961276292801,
				0.03310961276292801,
				0.03310961276292801
			],
			"translation":[
				0.11577342450618744,
				-0.13736897706985474,
				0.1887480467557907
			]
		}
	],
	"materials":[
		{
			"doubleSided":true,
			"name":"Material.003",
			"pbrMetallicRoughness":{
				"baseColorFactor":[
					0.29613637924194336,
					0.2704980671405792,
					0.2874409556388855,
					1
				],
				"metallicFactor":0,
				"roughnessFactor":0.5
			}
		},
		{
			"doubleSided":true,
			"name":"Material.002",
			"pbrMetallicRoughness":{
				"baseColorFactor":[
					0.04961593449115753,
					0.04961593449115753,
					0.04961593449115753,
					1
				],
				"metallicFactor":0,
				"roughnessFactor":0.5
			}
		},
		{
			"doubleSided":true,
			"name":"Material.001",
			"pbrMetallicRoughness":{
				"baseColorFactor":[
					0.800000011920929,
					0.800000011920929,
					0.800000011920929,
					1
				],
				"metallicFactor":0,
				"roughnessFactor":0.5
			}
		},
		{
			"doubleSided":true,
			"emissiveFactor":[
				1,
				1,
				1
			],
			"emissiveTexture":{
				"index":0
			},
			"extensions":{
				"KHR_materials_emissive_strength":{
					"emissiveStrength":1.2999999523162842
				}
			},
			"name":"Material",
			"pbrMetallicRoughness":{
				"baseColorTexture":{
					"index":1
				},
				"metallicFactor":0,
				"roughnessFactor":0.5
			}
		},
		{
			"doubleSided":true,
			"emissiveFactor":[
				0.699999988079071,
				0.00823220726984386,
				0.01969479549663755
			],
			"name":"Material.004",
			"pbrMetallicRoughness":{
				"baseColorFactor":[
					0.8012280464172363,
					0.7124904990196228,
					0.7124904990196228,
					1
				],
				"metallicFactor":0,
				"roughnessFactor":0.5
			}
		}
	],
	"meshes":[
		{
			"name":"Cube.002",
			"primitives":[
				{
					"attributes":{
						"POSITION":0,
						"NORMAL":1,
						"TEXCOORD_0":2,
						"COLOR_0":3,
						"COLOR_1":4
					},
					"indices":5,
					"material":0
				}
			]
		},
		{
			"name":"Plane",
			"primitives":[
				{
					"attributes":{
						"POSITION":6,
						"NORMAL":7,
						"TEXCOORD_0":8
					},
					"indices":9,
					"material":1
				}
			]
		},
		{
			"name":"Cube.003",
			"primitives":[
				{
					"attributes":{
						"POSITION":10,
						"NORMAL":11,
						"TEXCOORD_0":12,
						"COLOR_0":13,
						"COLOR_1":14
					},
					"indices":15,
					"material":2
				}
			]
		},
		{
			"name":"Cube.004",
			"primitives":[
				{
					"attributes":{
						"POSITION":16,
						"NORMAL":17,
						"TEXCOORD_0":18,
						"COLOR_0":19,
						"COLOR_1":20
					},
					"indices":21,
					"material":2
				}
			]
		},
		{
			"name":"Cube.005",
			"primitives":[
				{
					"attributes":{
						"POSITION":22,
						"NORMAL":23,
						"TEXCOORD_0":24,
						"COLOR_0":25,
						"COLOR_1":26
					},
					"indices":15,
					"material":2
				}
			]
		},
		{
			"name":"Cube.006",
			"primitives":[
				{
					"attributes":{
						"POSITION":27,
						"NORMAL":28,
						"TEXCOORD_0":29,
						"COLOR_0":30,
						"COLOR_1":31
					},
					"indices":15,
					"material":2
				}
			]
		},
		{
			"name":"Cube.001",
			"primitives":[
				{
					"attributes":{
						"POSITION":32,
						"NORMAL":33,
						"TEXCOORD_0":34,
						"COLOR_0":35,
						"COLOR_1":36
					},
					"indices":37,
					"material":2
				}
			]
		},
		{
			"name":"Cube.007",
			"primitives":[
				{
					"attributes":{
						"POSITION":38,
						"NORMAL":39,
						"TEXCOORD_0":40,
						"COLOR_0":41,
						"COLOR_1":42
					},
					"indices":37,
					"material":2
				}
			]
		},
		{
			"name":"Cube.008",
			"primitives":[
				{
					"attributes":{
						"POSITION":43,
						"NORMAL":44,
						"TEXCOORD_0":45,
						"COLOR_0":46,
						"COLOR_1":47
					},
					"indices":37,
					"material":2
				}
			]
		},
		{
			"name":"Cube.009",
			"primitives":[
				{
					"attributes":{
						"POSITION":48,
						"NORMAL":49,
						"TEXCOORD_0":50,
						"COLOR_0":51,
						"COLOR_1":52
					},
					"indices":37,
					"material":2
				}
			]
		},
		{
			"name":"Cube.010",
			"primitives":[
				{
					"attributes":{
						"POSITION":53,
						"NORMAL":54,
						"TEXCOORD_0":55,
						"COLOR_0":56,
						"COLOR_1":57
					},
					"indices":37,
					"material":2
				}
			]
		},
		{
			"name":"Cube.011",
			"primitives":[
				{
					"attributes":{
						"POSITION":58,
						"NORMAL":59,
						"TEXCOORD_0":60,
						"COLOR_0":61,
						"COLOR_1":62
					},
					"indices":37,
					"material":2
				}
			]
		},
		{
			"name":"Cube.012",
			"primitives":[
				{
					"attributes":{
						"POSITION":63,
						"NORMAL":64,
						"TEXCOORD_0":65,
						"COLOR_0":66,
						"COLOR_1":67
					},
					"indices":68,
					"material":3
				}
			]
		},
		{
			"name":"Icosphere",
			"primitives":[
				{
					"attributes":{
						"POSITION":69,
						"NORMAL":70,
						"TEXCOORD_0":71
					},
					"indices":72,
					"material":4
				}
			]
		}
	],
	"textures":[
		{
			"sampler":0,
			"source":0
		},
		{
			"sampler":0,
			"source":0
		}
	],
	"images":[
		{
			"mimeType":"image/png",
			"name":"SMPTE_Color_Bars.svg",
			"uri":"SMPTE_Color_Bars_svg.png"
		}
	],
	"accessors":[
		{
			"bufferView":0,
			"componentType":5126,
			"count":924,
			"max":[
				1.0005278587341309,
				1.0007034540176392,
				1
			],
			"min":[
				-1.0005278587341309,
				-1.0003657341003418,
				-0.5821933150291443
			],
			"type":"VEC3"
		},
		{
			"bufferView":1,
			"componentType":5126,
			"count":924,
			"type":"VEC3"
		},
		{
			"bufferView":2,
			"componentType":5126,
			"count":924,
			"type":"VEC2"
		},
		{
			"bufferView":3,
			"componentType":5121,
			"count":924,
			"normalized":true,
			"type":"VEC4"
		},
		{
			"bufferView":4,
			"componentType":5123,
			"count":924,
			"normalized":true,
			"type":"VEC4"
		},
		{
			"bufferView":5,
			"componentType":5123,
			"count":4422,
			"type":"SCALAR"
		},
		{
			"bufferView":6,
			"componentType":5126,
			"count":312,
			"max":[
				0.37044063210487366,
				4.261843681335449,
				0.8379987478256226
			],
			"min":[
				-0.19103583693504333,
				-4.261844158172607,
				-0.5015525817871094
			],
			"type":"VEC3"
		},
		{
			"bufferView":7,
			"componentType":5126,
			"count":312,
			"type":"VEC3"
		},
		{
			"bufferView":8,
			"componentType":5126,
			"count":312,
			"type":"VEC2"
		},
		{
			"bufferView":9,
			"componentType":5123,
			"count":1584,
			"type":"SCALAR"
		},
		{
			"bufferView":10,
			"componentType":5126,
			"count":36,
			"max":[
				0.7914541959762573,
				-0.7745414972305298,
				0.9248037934303284
			],
			"min":[
				0.7256501913070679,
				-0.8416900634765625,
				0.8766017556190491
			],
			"type":"VEC3"
		},
		{
			"bufferView":11,
			"componentType":5126,
			"count":36,
			"type":"VEC3"
		},
		{
			"bufferView":12,
			"componentType":5126,
			"count":36,
			"type":"VEC2"
		},
		{
			"bufferView":13,
			"componentType":5121,
			"count":36,
			"normalized":true,
			"type":"VEC4"
		},
		{
			"bufferView":14,
			"componentType":5123,
			"count":36,
			"normalized":true,
			"type":"VEC4"
		},
		{
			"bufferView":15,
			"componentType":5123,
			"count":204,
			"type":"SCALAR"
		},
		{
			"bufferView":16,
			"componentType":5126,
			"count":460,
			"max":[
				0.559028685092926,
				-0.7710387110710144,
				0.9038721323013306
			],
			"min":[
				0.4872469902038574,
				-0.8440583348274231,
				0.8470937013626099
			],
			"type":"VEC3"
		},
		{
			"bufferView":17,
			"componentType":5126,
			"count":460,
			"type":"VEC3"
		},
		{
			"bufferView":18,
			"componentType":5126,
			"count":460,
			"type":"VEC2"
		},
		{
			"bufferView":19,
			"componentType":5121,
			"count":460,
			"normalized":true,
			"type":"VEC4"
		},
		{
			"bufferView":20,
			"componentType":5123,
			"count":460,
			"normalized":true,
			"type":"VEC4"
		},
		{
			"bufferView":21,
			"componentType":5123,
			"count":1722,
			"type":"SCALAR"
		},
		{
			"bufferView":22,
			"componentType":5126,
			"count":36,
			"max":[
				0.7914541959762573,
				-0.7745414972305298,
				0.9248037934303284
			],
			"min":[
				0.7256501913070679,
				-0.8416900634765625,
				0.8766017556190491
			],
			"type":"VEC3"
		},
		{
			"bufferView":23,
			"componentType":5126,
			"count":36,
			"type":"VEC3"
		},
		{
			"bufferView":24,
			"componentType":5126,
			"count":36,
			"type":"VEC2"
		},
		{
			"bufferView":25,
			"componentType":5121,
			"count":36,
			"normalized":true,
			"type":"VEC4"
		},
		{
			"bufferView":26,
			"componentType":5123,
			"count":36,
			"normalized":true,
			"type":"VEC4"
		},
		{
			"bufferView":27,
			"componentType":5126,
			"count":36,
			"max":[
				0.7914541959762573,
				-0.7745414972305298,
				0.9248037934303284
			],
			"min":[
				0.7256501913070679,
				-0.8416900634765625,
				0.8766017556190491
			],
			"type":"VEC3"
		},
		{
			"bufferView":28,
			"componentType":5126,
			"count":36,
			"type":"VEC3"
		},
		{
			"bufferView":29,
			"componentType":5126,
			"count":36,
			"type":"VEC2"
		},
		{
			"bufferView":30,
			"componentType":5121,
			"count":36,
			"normalized":true,
			"type":"VEC4"
		},
		{
			"bufferView":31,
			"componentType":5123,
			"count":36,
			"normalized":true,
			"type":"VEC4"
		},
		{
			"bufferView":32,
			"componentType":5126,
			"count":460,
			"max":[
				0.4434601664543152,
				-0.7710387110710144,
				0.9038721323013306
			],
			"min":[
				0.3716784715652466,
				-0.8440583348274231,
				0.8470937013626099
			],
			"type":"VEC3"
		},
		{
			"bufferView":33,
			"componentType":5126,
			"count":460,
			"type":"VEC3"
		},
		{
			"bufferView":34,
			"componentType":5126,
			"count":460,
			"type":"VEC2"
		},
		{
			"bufferView":35,
			"componentType":5121,
			"count":460,
			"normalized":true,
			"type":"VEC4"
		},
		{
			"bufferView":36,
			"componentType":5123,
			"count":460,
			"normalized":true,
			"type":"VEC4"
		},
		{
			"bufferView":37,
			"componentType":5123,
			"count":1722,
			"type":"SCALAR"
		},
		{
			"bufferView":38,
			"componentType":5126,
			"count":460,
			"max":[
				0.32789164781570435,
				-0.7710387110710144,
				0.9038721323013306
			],
			"min":[
				0.25610995292663574,
				-0.8440583348274231,
				0.8470937013626099
			],
			"type":"VEC3"
		},
		{
			"bufferView":39,
			"componentType":5126,
			"count":460,
			"type":"VEC3"
		},
		{
			"bufferView":40,
			"componentType":5126,
			"count":460,
			"type":"VEC2"
		},
		{
			"bufferView":41,
			"componentType":5121,
			"count":460,
			"normalized":true,
			"type":"VEC4"
		},
		{
			"bufferView":42,
			"componentType":5123,
			"count":460,
			"normalized":true,
			"type":"VEC4"
		},
		{
			"bufferView":43,
			"componentType":5126,
			"count":460,
			"max":[
				0.2123231589794159,
				-0.7710387110710144,
				0.9038721323013306
			],
			"min":[
				0.1405414640903473,
				-0.8440583348274231,
				0.8470937013626099
			],
			"type":"VEC3"
		},
		{
			"bufferView":44,
			"componentType":5126,
			"count":460,
			"type":"VEC3"
		},
		{
			"bufferView":45,
			"componentType":5126,
			"count":460,
			"type":"VEC2"
		},
		{
			"bufferView":46,
			"componentType":5121,
			"count":460,
			"normalized":true,
			"type":"VEC4"
		},
		{
			"bufferView":47,
			"componentType":5123,
			"count":460,
			"normalized":true,
			"type":"VEC4"
		},
		{
			"bufferView":48,
			"componentType":5126,
			"count":460,
			"max":[
				0.09675464034080505,
				-0.7710387110710144,
				0.9038721323013306
			],
			"min":[
				0.02497294545173645,
				-0.8440583348274231,
				0.8470937013626099
			],
			"type":"VEC3"
		},
		{
			"bufferView":49,
			"componentType":5126,
			"count":460,
			"type":"VEC3"
		},
		{
			"bufferView":50,
			"componentType":5126,
			"count":460,
			"type":"VEC2"
		},
		{
			"bufferView":51,
			"componentType":5121,
			"count":460,
			"normalized":true,
			"type":"VEC4"
		},
		{
			"bufferView":52,
			"componentType":5123,
			"count":460,
			"normalized":true,
			"type":"VEC4"
		},
		{
			"bufferView":53,
			"componentType":5126,
			"count":460,
			"max":[
				-0.0188138484954834,
				-0.7710387110710144,
				0.9038721323013306
			],
			"min":[
				-0.090595543384552,
				-0.8440583348274231,
				0.8470937013626099
			],
			"type":"VEC3"
		},
		{
			"bufferView":54,
			"componentType":5126,
			"count":460,
			"type":"VEC3"
		},
		{
			"bufferView":55,
			"componentType":5126,
			"count":460,
			"type":"VEC2"
		},
		{
			"bufferView":56,
			"componentType":5121,
			"count":460,
			"normalized":true,
			"type":"VEC4"
		},
		{
			"bufferView":57,
			"componentType":5123,
			"count":460,
			"normalized":true,
			"type":"VEC4"
		},
		{
			"bufferView":58,
			"componentType":5126,
			"count":460,
			"max":[
				-0.13438236713409424,
				-0.7710387110710144,
				0.9038721323013306
			],
			"min":[
				-0.20616406202316284,
				-0.8440583348274231,
				0.8470937013626099
			],
			"type":"VEC3"
		},
		{
			"bufferView":59,
			"componentType":5126,
			"count":460,
			"type":"VEC3"
		},
		{
			"bufferView":60,
			"componentType":5126,
			"count":460,
			"type":"VEC2"
		},
		{
			"bufferView":61,
			"componentType":5121,
			"count":460,
			"normalized":true,
			"type":"VEC4"
		},
		{
			"bufferView":62,
			"componentType":5123,
			"count":460,
			"normalized":true,
			"type":"VEC4"
		},
		{
			"bufferView":63,
			"componentType":5126,
			"count":49,
			"max":[
				0.8502549529075623,
				0.7773117423057556,
				1.0029665231704712
			],
			"min":[
				-0.8502549529075623,
				-0.3935435116291046,
				0.8451679944992065
			],
			"type":"VEC3"
		},
		{
			"bufferView":64,
			"componentType":5126,
			"count":49,
			"type":"VEC3"
		},
		{
			"bufferView":65,
			"componentType":5126,
			"count":49,
			"type":"VEC2"
		},
		{
			"bufferView":66,
			"componentType":5121,
			"count":49,
			"normalized":true,
			"type":"VEC4"
		},
		{
			"bufferView":67,
			"componentType":5123,
			"count":49,
			"normalized":true,
			"type":"VEC4"
		},
		{
			"bufferView":68,
			"componentType":5123,
			"count":216,
			"type":"SCALAR"
		},
		{
			"bufferView":69,
			"componentType":5126,
			"count":40,
			"max":[
				0.0627698078751564,
				0.06599998474121094,
				0.06599998474121094
			],
			"min":[
				-0.0627698078751564,
				-0.06599998474121094,
				0
			],
			"type":"VEC3"
		},
		{
			"bufferView":70,
			"componentType":5126,
			"count":40,
			"type":"VEC3"
		},
		{
			"bufferView":71,
			"componentType":5126,
			"count":40,
			"type":"VEC2"
		},
		{
			"bufferView":72,
			"componentType":5123,
			"count":144,
			"type":"SCALAR"
		}
	],
	"bufferViews":[
		{
			"buffer":0,
			"byteLength":11088,
			"byteOffset":0,
			"target":34962
		},
		{
			"buffer":0,
			"byteLength":11088,
			"byteOffset":11088,
			"target":34962
		},
		{
			"buffer":0,
			"byteLength":7392,
			"byteOffset":22176,
			"target":34962
		},
		{
			"buffer":0,
			"byteLength":3696,
			"byteOffset":29568,
			"target":34962
		},
		{
			"buffer":0,
			"byteLength":7392,
			"byteOffset":33264,
			"target":34962
		},
		{
			"buffer":0,
			"byteLength":8844,
			"byteOffset":40656,
			"target":34963
		},
		{
			"buffer":0,
			"byteLength":3744,
			"byteOffset":49500,
			"target":34962
		},
		{
			"buffer":0,
			"byteLength":3744,
			"byteOffset":53244,
			"target":34962
		},
		{
			"buffer":0,
			"byteLength":2496,
			"byteOffset":56988,
			"target":34962
		},
		{
			"buffer":0,
			"byteLength":3168,
			"byteOffset":59484,
			"target":34963
		},
		{
			"buffer":0,
			"byteLength":432,
			"byteOffset":62652,
			"target":34962
		},
		{
			"buffer":0,
			"byteLength":432,
			"byteOffset":63084,
			"target":34962
		},
		{
			"buffer":0,
			"byteLength":288,
			"byteOffset":63516,
			"target":34962
		},
		{
			"buffer":0,
			"byteLength":144,
			"byteOffset":63804,
			"target":34962
		},
		{
			"buffer":0,
			"byteLength":288,
			"byteOffset":63948,
			"target":34962
		},
		{
			"buffer":0,
			"byteLength":408,
			"byteOffset":64236,
			"target":34963
		},
		{
			"buffer":0,
			"byteLength":5520,
			"byteOffset":64644,
			"target":34962
		},
		{
			"buffer":0,
			"byteLength":5520,
			"byteOffset":70164,
			"target":34962
		},
		{
			"buffer":0,
			"byteLength":3680,
			"byteOffset":75684,
			"target":34962
		},
		{
			"buffer":0,
			"byteLength":1840,
			"byteOffset":79364,
			"target":34962
		},
		{
			"buffer":0,
			"byteLength":3680,
			"byteOffset":81204,
			"target":34962
		},
		{
			"buffer":0,
			"byteLength":3444,
			"byteOffset":84884,
			"target":34963
		},
		{
			"buffer":0,
			"byteLength":432,
			"byteOffset":88328,
			"target":34962
		},
		{
			"buffer":0,
			"byteLength":432,
			"byteOffset":88760,
			"target":34962
		},
		{
			"buffer":0,
			"byteLength":288,
			"byteOffset":89192,
			"target":34962
		},
		{
			"buffer":0,
			"byteLength":144,
			"byteOffset":89480,
			"target":34962
		},
		{
			"buffer":0,
			"byteLength":288,
			"byteOffset":89624,
			"target":34962
		},
		{
			"buffer":0,
			"byteLength":432,
			"byteOffset":89912,
			"target":34962
		},
		{
			"buffer":0,
			"byteLength":432,
			"byteOffset":90344,
			"target":34962
		},
		{
			"buffer":0,
			"byteLength":288,
			"byteOffset":90776,
			"target":34962
		},
		{
			"buffer":0,
			"byteLength":144,
			"byteOffset":91064,
			"target":34962
		},
		{
			"buffer":0,
			"byteLength":288,
			"byteOffset":91208,
			"target":34962
		},
		{
			"buffer":0,
			"byteLength":5520,
			"byteOffset":91496,
			"target":34962
		},
		{
			"buffer":0,
			"byteLength":5520,
			"byteOffset":97016,
			"target":34962
		},
		{
			"buffer":0,
			"byteLength":3680,
			"byteOffset":102536,
			"target":34962
		},
		{
			"buffer":0,
			"byteLength":1840,
			"byteOffset":106216,
			"target":34962
		},
		{
			"buffer":0,
			"byteLength":3680,
			"byteOffset":108056,
			"target":34962
		},
		{
			"buffer":0,
			"byteLength":3444,
			"byteOffset":111736,
			"target":34963
		},
		{
			"buffer":0,
			"byteLength":5520,
			"byteOffset":115180,
			"target":34962
		},
		{
			"buffer":0,
			"byteLength":5520,
			"byteOffset":120700,
			"target":34962
		},
		{
			"buffer":0,
			"byteLength":3680,
			"byteOffset":126220,
			"target":34962
		},
		{
			"buffer":0,
			"byteLength":1840,
			"byteOffset":129900,
			"target":34962
		},
		{
			"buffer":0,
			"byteLength":3680,
			"byteOffset":131740,
			"target":34962
		},
		{
			"buffer":0,
			"byteLength":5520,
			"byteOffset":135420,
			"target":34962
		},
		{
			"buffer":0,
			"byteLength":5520,
			"byteOffset":140940,
			"target":34962
		},
		{
			"buffer":0,
			"byteLength":3680,
			"byteOffset":146460,
			"target":34962
		},
		{
			"buffer":0,
			"byteLength":1840,
			"byteOffset":150140,
			"target":34962
		},
		{
			"buffer":0,
			"byteLength":3680,
			"byteOffset":151980,
			"target":34962
		},
		{
			"buffer":0,
			"byteLength":5520,
			"byteOffset":155660,
			"target":34962
		},
		{
			"buffer":0,
			"byteLength":5520,
			"byteOffset":161180,
			"target":34962
		},
		{
			"buffer":0,
			"byteLength":3680,
			"byteOffset":166700,
			"target":34962
		},
		{
			"buffer":0,
			"byteLength":1840,
			"byteOffset":170380,
			"target":34962
		},
		{
			"buffer":0,
			"byteLength":3680,
			"byteOffset":172220,
			"target":34962
		},
		{
			"buffer":0,
			"byteLength":5520,
			"byteOffset":175900,
			"target":34962
		},
		{
			"buffer":0,
			"byteLength":5520,
			"byteOffset":181420,
			"target":34962
		},
		{
			"buffer":0,
			"byteLength":3680,
			"byteOffset":186940,
			"target":34962
		},
		{
			"buffer":0,
			"byteLength":1840,
			"byteOffset":190620,
			"target":34962
		},
		{
			"buffer":0,
			"byteLength":3680,
			"byteOffset":192460,
			"target":34962
		},
		{
			"buffer":0,
			"byteLength":5520,
			"byteOffset":196140,
			"target":34962
		},
		{
			"buffer":0,
			"byteLength":5520,
			"byteOffset":201660,
			"target":34962
		},
		{
			"buffer":0,
			"byteLength":3680,
			"byteOffset":207180,
			"target":34962
		},
		{
			"buffer":0,
			"byteLength":1840,
			"byteOffset":210860,
			"target":34962
		},
		{
			"buffer":0,
			"byteLength":3680,
			"byteOffset":212700,
			"target":34962
		},
		{
			"buffer":0,
			"byteLength":588,
			"byteOffset":216380,
			"target":34962
		},
		{
			"buffer":0,
			"byteLength":588,
			"byteOffset":216968,
			"target":34962
		},
		{
			"buffer":0,
			"byteLength":392,
			"byteOffset":217556,
			"target":34962
		},
		{
			"buffer":0,
			"byteLength":196,
			"byteOffset":217948,
			"target":34962
		},
		{
			"buffer":0,
			"byteLength":392,
			"byteOffset":218144,
			"target":34962
		},
		{
			"buffer":0,
			"byteLength":432,
			"byteOffset":218536,
			"target":34963
		},
		{
			"buffer":0,
			"byteLength":480,
			"byteOffset":218968,
			"target":34962
		},
		{
			"buffer":0,
			"byteLength":480,
			"byteOffset":219448,
			"target":34962
		},
		{
			"buffer":0,
			"byteLength":320,
			"byteOffset":219928,
			"target":34962
		},
		{
			"buffer":0,
			"byteLength":288,
			"byteOffset":220248,
			"target":34963
		}
	],
	"samplers":[
		{
			"magFilter":9729,
			"minFilter":9987
		}
	],
	"buffers":[
		{
			"byteLength":220536,
			"uri":"Screen.bin"
		}
	]
}
